<?xml version="1.0" encoding="UTF-8"?>
<!--Generator: Apple Native CoreSVG 175-->
<!DOCTYPE svg
PUBLIC "-//W3C//DTD SVG 1.1//EN"
       "http://www.w3.org/Graphics/SVG/1.1/DTD/svg11.dtd">
<svg version="1.1" xmlns="http://www.w3.org/2000/svg" xmlns:xlink="http://www.w3.org/1999/xlink" width="3300" height="2200">
 <!--glyph: "uni100A73.medium", point size: 100.0, font version: "17.1d1e1", template writer version: "65.1"-->
 <style>.hierarchical-0:secondary {fill:#4D4D4D}
.hierarchical-1:primary {fill:#212121}

.SFSymbolsPreview212121 {fill:#212121;opacity:1.0}
.SFSymbolsPreview4D4D4D {fill:#4D4D4D;opacity:1.0}
</style>
 <g id="Notes">
  <rect height="2200" id="artboard" style="fill:white;opacity:1" width="3300" x="0" y="0"/>
  <line style="fill:none;stroke:black;opacity:1;stroke-width:0.5;" x1="263" x2="3036" y1="292" y2="292"/>
  <text style="stroke:none;fill:black;font-family:sans-serif;font-size:13;font-weight:bold;" transform="matrix(1 0 0 1 263 322)">Weight/Scale Variations</text>
  <text style="stroke:none;fill:black;font-family:sans-serif;font-size:13;text-anchor:middle;" transform="matrix(1 0 0 1 559.711 322)">Ultralight</text>
  <text style="stroke:none;fill:black;font-family:sans-serif;font-size:13;text-anchor:middle;" transform="matrix(1 0 0 1 856.422 322)">Thin</text>
  <text style="stroke:none;fill:black;font-family:sans-serif;font-size:13;text-anchor:middle;" transform="matrix(1 0 0 1 1153.13 322)">Light</text>
  <text style="stroke:none;fill:black;font-family:sans-serif;font-size:13;text-anchor:middle;" transform="matrix(1 0 0 1 1449.84 322)">Regular</text>
  <text style="stroke:none;fill:black;font-family:sans-serif;font-size:13;text-anchor:middle;" transform="matrix(1 0 0 1 1746.56 322)">Medium</text>
  <text style="stroke:none;fill:black;font-family:sans-serif;font-size:13;text-anchor:middle;" transform="matrix(1 0 0 1 2043.27 322)">Semibold</text>
  <text style="stroke:none;fill:black;font-family:sans-serif;font-size:13;text-anchor:middle;" transform="matrix(1 0 0 1 2339.98 322)">Bold</text>
  <text style="stroke:none;fill:black;font-family:sans-serif;font-size:13;text-anchor:middle;" transform="matrix(1 0 0 1 2636.69 322)">Heavy</text>
  <text style="stroke:none;fill:black;font-family:sans-serif;font-size:13;text-anchor:middle;" transform="matrix(1 0 0 1 2933.4 322)">Black</text>
  <line style="fill:none;stroke:black;opacity:1;stroke-width:0.5;" x1="263" x2="3036" y1="1903" y2="1903"/>
  <g transform="matrix(1 0 0 1 263 1933)">
   <path d="M9.24805 0.830078Q10.8691 0.830078 12.2949 0.214844Q13.7207-0.400391 14.8096-1.49414Q15.8984-2.58789 16.5186-4.01367Q17.1387-5.43945 17.1387-7.05078Q17.1387-8.66211 16.5186-10.0879Q15.8984-11.5137 14.8047-12.6074Q13.7109-13.7012 12.2852-14.3164Q10.8594-14.9316 9.23828-14.9316Q7.62695-14.9316 6.20117-14.3164Q4.77539-13.7012 3.69141-12.6074Q2.60742-11.5137 1.9873-10.0879Q1.36719-8.66211 1.36719-7.05078Q1.36719-5.43945 1.9873-4.01367Q2.60742-2.58789 3.69629-1.49414Q4.78516-0.400391 6.21094 0.214844Q7.63672 0.830078 9.24805 0.830078ZM9.24805-0.654297Q7.91992-0.654297 6.7627-1.14746Q5.60547-1.64062 4.73145-2.51953Q3.85742-3.39844 3.36426-4.56055Q2.87109-5.72266 2.87109-7.05078Q2.87109-8.37891 3.35938-9.54102Q3.84766-10.7031 4.72168-11.582Q5.5957-12.4609 6.75293-12.9541Q7.91016-13.4473 9.23828-13.4473Q10.5762-13.4473 11.7334-12.9541Q12.8906-12.4609 13.7695-11.582Q14.6484-10.7031 15.1465-9.54102Q15.6445-8.37891 15.6445-7.05078Q15.6445-5.72266 15.1514-4.56055Q14.6582-3.39844 13.7842-2.51953Q12.9102-1.64062 11.748-1.14746Q10.5859-0.654297 9.24805-0.654297ZM5.6543-7.05078Q5.6543-6.72852 5.85938-6.52832Q6.06445-6.32812 6.40625-6.32812L8.51562-6.32812L8.51562-4.20898Q8.51562-3.88672 8.71094-3.67676Q8.90625-3.4668 9.23828-3.4668Q9.56055-3.4668 9.77051-3.67676Q9.98047-3.88672 9.98047-4.20898L9.98047-6.32812L12.0898-6.32812Q12.4219-6.32812 12.627-6.52832Q12.832-6.72852 12.832-7.05078Q12.832-7.38281 12.627-7.58789Q12.4219-7.79297 12.0898-7.79297L9.98047-7.79297L9.98047-9.90234Q9.98047-10.2344 9.77051-10.4443Q9.56055-10.6543 9.23828-10.6543Q8.90625-10.6543 8.71094-10.4443Q8.51562-10.2344 8.51562-9.90234L8.51562-7.79297L6.40625-7.79297Q6.06445-7.79297 5.85938-7.58789Q5.6543-7.38281 5.6543-7.05078Z"/>
  </g>
  <g transform="matrix(1 0 0 1 281.867 1933)">
   <path d="M11.709 2.91016Q13.75 2.91016 15.5518 2.12891Q17.3535 1.34766 18.7305-0.0292969Q20.1074-1.40625 20.8887-3.20801Q21.6699-5.00977 21.6699-7.05078Q21.6699-9.0918 20.8887-10.8936Q20.1074-12.6953 18.7305-14.0723Q17.3535-15.4492 15.5469-16.2305Q13.7402-17.0117 11.6992-17.0117Q9.6582-17.0117 7.85645-16.2305Q6.05469-15.4492 4.68262-14.0723Q3.31055-12.6953 2.5293-10.8936Q1.74805-9.0918 1.74805-7.05078Q1.74805-5.00977 2.5293-3.20801Q3.31055-1.40625 4.6875-0.0292969Q6.06445 1.34766 7.86621 2.12891Q9.66797 2.91016 11.709 2.91016ZM11.709 1.25Q9.98047 1.25 8.47656 0.605469Q6.97266-0.0390625 5.83496-1.17676Q4.69727-2.31445 4.05762-3.81836Q3.41797-5.32227 3.41797-7.05078Q3.41797-8.7793 4.05762-10.2832Q4.69727-11.7871 5.83008-12.9297Q6.96289-14.0723 8.4668-14.7119Q9.9707-15.3516 11.6992-15.3516Q13.4277-15.3516 14.9316-14.7119Q16.4355-14.0723 17.5781-12.9297Q18.7207-11.7871 19.3652-10.2832Q20.0098-8.7793 20.0098-7.05078Q20.0098-5.32227 19.3701-3.81836Q18.7305-2.31445 17.5928-1.17676Q16.4551-0.0390625 14.9463 0.605469Q13.4375 1.25 11.709 1.25ZM7.17773-7.05078Q7.17773-6.69922 7.41211-6.47461Q7.64648-6.25 8.01758-6.25L10.8887-6.25L10.8887-3.36914Q10.8887-2.99805 11.1133-2.76855Q11.3379-2.53906 11.6895-2.53906Q12.0605-2.53906 12.29-2.76855Q12.5195-2.99805 12.5195-3.36914L12.5195-6.25L15.4004-6.25Q15.7715-6.25 16.001-6.47461Q16.2305-6.69922 16.2305-7.05078Q16.2305-7.42188 16.001-7.65137Q15.7715-7.88086 15.4004-7.88086L12.5195-7.88086L12.5195-10.752Q12.5195-11.1328 12.29-11.3623Q12.0605-11.5918 11.6895-11.5918Q11.3379-11.5918 11.1133-11.3574Q10.8887-11.123 10.8887-10.752L10.8887-7.88086L8.01758-7.88086Q7.63672-7.88086 7.40723-7.65137Q7.17773-7.42188 7.17773-7.05078Z"/>
  </g>
  <g transform="matrix(1 0 0 1 305.646 1933)">
   <path d="M14.9707 5.66406Q17.0605 5.66406 18.96 5.01465Q20.8594 4.36523 22.4512 3.19336Q24.043 2.02148 25.2197 0.429688Q26.3965-1.16211 27.0459-3.06641Q27.6953-4.9707 27.6953-7.05078Q27.6953-9.14062 27.0459-11.04Q26.3965-12.9395 25.2197-14.5312Q24.043-16.123 22.4512-17.2998Q20.8594-18.4766 18.9551-19.126Q17.0508-19.7754 14.9609-19.7754Q12.8711-19.7754 10.9717-19.126Q9.07227-18.4766 7.48535-17.2998Q5.89844-16.123 4.72168-14.5312Q3.54492-12.9395 2.90039-11.04Q2.25586-9.14062 2.25586-7.05078Q2.25586-4.9707 2.90527-3.06641Q3.55469-1.16211 4.72656 0.429688Q5.89844 2.02148 7.49023 3.19336Q9.08203 4.36523 10.9814 5.01465Q12.8809 5.66406 14.9707 5.66406ZM14.9707 3.84766Q13.1641 3.84766 11.5283 3.2959Q9.89258 2.74414 8.53516 1.74805Q7.17773 0.751953 6.17676-0.610352Q5.17578-1.97266 4.62891-3.6084Q4.08203-5.24414 4.08203-7.05078Q4.08203-8.86719 4.62891-10.5029Q5.17578-12.1387 6.17188-13.501Q7.16797-14.8633 8.52539-15.8594Q9.88281-16.8555 11.5186-17.4023Q13.1543-17.9492 14.9609-17.9492Q16.7773-17.9492 18.4131-17.4023Q20.0488-16.8555 21.4111-15.8594Q22.7734-14.8633 23.7695-13.501Q24.7656-12.1387 25.3174-10.5029Q25.8691-8.86719 25.8691-7.05078Q25.8789-5.24414 25.332-3.6084Q24.7852-1.97266 23.7842-0.610352Q22.7832 0.751953 21.4209 1.74805Q20.0586 2.74414 18.4229 3.2959Q16.7871 3.84766 14.9707 3.84766ZM9.19922-7.05078Q9.19922-6.66992 9.45801-6.4209Q9.7168-6.17188 10.1172-6.17188L14.0625-6.17188L14.0625-2.2168Q14.0625-1.81641 14.3115-1.55762Q14.5605-1.29883 14.9512-1.29883Q15.3516-1.29883 15.6104-1.55273Q15.8691-1.80664 15.8691-2.2168L15.8691-6.17188L19.8242-6.17188Q20.2246-6.17188 20.4785-6.4209Q20.7324-6.66992 20.7324-7.05078Q20.7324-7.46094 20.4785-7.71484Q20.2246-7.96875 19.8242-7.96875L15.8691-7.96875L15.8691-11.9141Q15.8691-12.3242 15.6104-12.583Q15.3516-12.8418 14.9512-12.8418Q14.5605-12.8418 14.3115-12.583Q14.0625-12.3242 14.0625-11.9141L14.0625-7.96875L10.1172-7.96875Q9.70703-7.96875 9.45312-7.71484Q9.19922-7.46094 9.19922-7.05078Z"/>
  </g>
  <text style="stroke:none;fill:black;font-family:sans-serif;font-size:13;font-weight:bold;" transform="matrix(1 0 0 1 263 1953)">Design Variations</text>
  <text style="stroke:none;fill:black;font-family:sans-serif;font-size:13;" transform="matrix(1 0 0 1 263 1971)">Symbols are supported in up to nine weights and three scales.</text>
  <text style="stroke:none;fill:black;font-family:sans-serif;font-size:13;" transform="matrix(1 0 0 1 263 1989)">For optimal layout with text and other symbols, vertically align</text>
  <text style="stroke:none;fill:black;font-family:sans-serif;font-size:13;" transform="matrix(1 0 0 1 263 2007)">symbols with the adjacent text.</text>
  <line style="fill:none;stroke:#00AEEF;stroke-width:0.5;opacity:1.0;" x1="776" x2="776" y1="1919" y2="1933"/>
  <g transform="matrix(1 0 0 1 776 1933)">
   <path d="M3.31055 0.15625Q3.70117 0.15625 3.91602-0.00976562Q4.13086-0.175781 4.26758-0.585938L5.52734-4.0332L11.2891-4.0332L12.5488-0.585938Q12.6855-0.175781 12.9004-0.00976562Q13.1152 0.15625 13.4961 0.15625Q13.8867 0.15625 14.1162-0.0585938Q14.3457-0.273438 14.3457-0.644531Q14.3457-0.869141 14.2383-1.17188L9.6582-13.3691Q9.48242-13.8184 9.17969-14.043Q8.87695-14.2676 8.4082-14.2676Q7.5-14.2676 7.17773-13.3789L2.59766-1.16211Q2.49023-0.859375 2.49023-0.634766Q2.49023-0.263672 2.70996-0.0537109Q2.92969 0.15625 3.31055 0.15625ZM6.00586-5.51758L8.37891-12.0898L8.42773-12.0898L10.8008-5.51758Z"/>
  </g>
  <line style="fill:none;stroke:#00AEEF;stroke-width:0.5;opacity:1.0;" x1="793.197" x2="793.197" y1="1919" y2="1933"/>
  <text style="stroke:none;fill:black;font-family:sans-serif;font-size:13;font-weight:bold;" transform="matrix(1 0 0 1 776 1953)">Margins</text>
  <text style="stroke:none;fill:black;font-family:sans-serif;font-size:13;" transform="matrix(1 0 0 1 776 1971)">Leading and trailing margins on the left and right side of each symbol</text>
  <text style="stroke:none;fill:black;font-family:sans-serif;font-size:13;" transform="matrix(1 0 0 1 776 1989)">can be adjusted by modifying the x-location of the margin guidelines.</text>
  <text style="stroke:none;fill:black;font-family:sans-serif;font-size:13;" transform="matrix(1 0 0 1 776 2007)">Modifications are automatically applied proportionally to all</text>
  <text style="stroke:none;fill:black;font-family:sans-serif;font-size:13;" transform="matrix(1 0 0 1 776 2025)">scales and weights.</text>
  <g transform="matrix(1 0 0 1 1289 1933)">
   <path d="M2.8418 1.86523L4.54102 3.57422Q5.18555 4.22852 5.90332 4.17969Q6.62109 4.13086 7.31445 3.35938L18.0078-8.42773L17.041-9.4043L6.42578 2.27539Q6.16211 2.57812 5.89355 2.61719Q5.625 2.65625 5.27344 2.30469L4.10156 1.14258Q3.75 0.791016 3.79395 0.522461Q3.83789 0.253906 4.14062-0.0195312L15.6152-10.8203L14.6387-11.7871L3.04688-0.898438Q2.30469-0.214844 2.25098 0.498047Q2.19727 1.21094 2.8418 1.86523ZM9.25781-16.3281Q8.94531-16.0254 8.90625-15.6348Q8.86719-15.2441 9.04297-14.9512Q9.21875-14.6777 9.55566-14.541Q9.89258-14.4043 10.3809-14.5215Q11.4746-14.7754 12.5977-14.7314Q13.7207-14.6875 14.7949-13.9844L14.209-12.5293Q13.9551-11.9043 14.0674-11.4404Q14.1797-10.9766 14.5801-10.5664L16.875-8.25195Q17.2363-7.88086 17.5781-7.82227Q17.9199-7.76367 18.3398-7.8418L19.4043-8.03711L20.0684-7.36328L20.0293-6.80664Q20-6.43555 20.1221-6.12305Q20.2441-5.81055 20.6055-5.44922L21.3672-4.70703Q21.7285-4.3457 22.1533-4.33105Q22.5781-4.31641 22.9297-4.66797L25.8398-7.58789Q26.1914-7.93945 26.1816-8.35449Q26.1719-8.76953 25.8105-9.13086L25.0391-9.89258Q24.6875-10.2539 24.3799-10.3857Q24.0723-10.5176 23.7109-10.4883L23.1348-10.4395L22.4902-11.0742L22.7344-12.1973Q22.832-12.6172 22.6953-12.9834Q22.5586-13.3496 22.1191-13.7891L19.9219-15.9766Q18.6719-17.2168 17.2607-17.8369Q15.8496-18.457 14.4189-18.4814Q12.9883-18.5059 11.665-17.959Q10.3418-17.4121 9.25781-16.3281ZM10.752-15.957Q11.6602-16.6211 12.7002-16.9043Q13.7402-17.1875 14.8047-17.085Q15.8691-16.9824 16.8701-16.5137Q17.8711-16.0449 18.7012-15.2051L21.1328-12.793Q21.3086-12.6172 21.3525-12.4512Q21.3965-12.2852 21.3379-12.0312L21.0156-10.5469L22.5195-9.0625L23.5059-9.12109Q23.6914-9.13086 23.7891-9.09668Q23.8867-9.0625 24.0332-8.91602L24.6094-8.33984L22.168-5.89844L21.5918-6.47461Q21.4453-6.62109 21.4062-6.71875Q21.3672-6.81641 21.377-7.01172L21.4453-7.98828L19.9512-9.47266L18.4277-9.21875Q18.1836-9.16992 18.042-9.2041Q17.9004-9.23828 17.7148-9.41406L15.7129-11.416Q15.5176-11.5918 15.4932-11.7529Q15.4688-11.9141 15.5859-12.1875L16.4648-14.2773Q15.293-15.3711 13.8281-15.791Q12.3633-16.2109 10.8398-15.7617Q10.7227-15.7324 10.6885-15.8057Q10.6543-15.8789 10.752-15.957Z"/>
  </g>
  <text style="stroke:none;fill:black;font-family:sans-serif;font-size:13;font-weight:bold;" transform="matrix(1 0 0 1 1289 1953)">Exporting</text>
  <text style="stroke:none;fill:black;font-family:sans-serif;font-size:13;" transform="matrix(1 0 0 1 1289 1971)">Symbols should be outlined when exporting to ensure the</text>
  <text style="stroke:none;fill:black;font-family:sans-serif;font-size:13;" transform="matrix(1 0 0 1 1289 1989)">design is preserved when submitting to Xcode.</text>
  <text id="template-version" style="stroke:none;fill:black;font-family:sans-serif;font-size:13;text-anchor:end;" transform="matrix(1 0 0 1 3036 1933)">Template v.3.0</text>
  <text style="stroke:none;fill:black;font-family:sans-serif;font-size:13;text-anchor:end;" transform="matrix(1 0 0 1 3036 1951)">Requires Xcode 13 or greater</text>
  <text id="descriptive-name" style="stroke:none;fill:black;font-family:sans-serif;font-size:13;text-anchor:end;" transform="matrix(1 0 0 1 3036 1969)">Generated from list.bullet.rectangle</text>
  <text style="stroke:none;fill:black;font-family:sans-serif;font-size:13;text-anchor:end;" transform="matrix(1 0 0 1 3036 1987)">Typeset at 100 points</text>
  <text style="stroke:none;fill:black;font-family:sans-serif;font-size:13;" transform="matrix(1 0 0 1 263 726)">Small</text>
  <text style="stroke:none;fill:black;font-family:sans-serif;font-size:13;" transform="matrix(1 0 0 1 263 1156)">Medium</text>
  <text style="stroke:none;fill:black;font-family:sans-serif;font-size:13;" transform="matrix(1 0 0 1 263 1586)">Large</text>
 </g>
 <g id="Guides">
  <g id="H-reference" style="fill:#27AAE1;stroke:none;" transform="matrix(1 0 0 1 339 696)">
   <path d="M0.976562 0L3.66211 0L29.3457-67.1387L30.0293-67.1387L30.0293-70.459L28.125-70.459ZM11.6699-24.4629L46.9727-24.4629L46.2402-26.709L12.4512-26.709ZM55.127 0L57.7637 0L30.6152-70.459L29.4434-70.459L29.4434-67.1387Z"/>
  </g>
  <line id="Baseline-S" style="fill:none;stroke:#27AAE1;opacity:1;stroke-width:0.5;" x1="263" x2="3036" y1="696" y2="696"/>
  <line id="Capline-S" style="fill:none;stroke:#27AAE1;opacity:1;stroke-width:0.5;" x1="263" x2="3036" y1="625.541" y2="625.541"/>
  <g id="H-reference" style="fill:#27AAE1;stroke:none;" transform="matrix(1 0 0 1 339 1126)">
   <path d="M0.976562 0L3.66211 0L29.3457-67.1387L30.0293-67.1387L30.0293-70.459L28.125-70.459ZM11.6699-24.4629L46.9727-24.4629L46.2402-26.709L12.4512-26.709ZM55.127 0L57.7637 0L30.6152-70.459L29.4434-70.459L29.4434-67.1387Z"/>
  </g>
  <line id="Baseline-M" style="fill:none;stroke:#27AAE1;opacity:1;stroke-width:0.5;" x1="263" x2="3036" y1="1126" y2="1126"/>
  <line id="Capline-M" style="fill:none;stroke:#27AAE1;opacity:1;stroke-width:0.5;" x1="263" x2="3036" y1="1055.54" y2="1055.54"/>
  <g id="H-reference" style="fill:#27AAE1;stroke:none;" transform="matrix(1 0 0 1 339 1556)">
   <path d="M0.976562 0L3.66211 0L29.3457-67.1387L30.0293-67.1387L30.0293-70.459L28.125-70.459ZM11.6699-24.4629L46.9727-24.4629L46.2402-26.709L12.4512-26.709ZM55.127 0L57.7637 0L30.6152-70.459L29.4434-70.459L29.4434-67.1387Z"/>
  </g>
  <line id="Baseline-L" style="fill:none;stroke:#27AAE1;opacity:1;stroke-width:0.5;" x1="263" x2="3036" y1="1556" y2="1556"/>
  <line id="Capline-L" style="fill:none;stroke:#27AAE1;opacity:1;stroke-width:0.5;" x1="263" x2="3036" y1="1485.54" y2="1485.54"/>
  <line id="left-margin-Ultralight-S" style="fill:none;stroke:#00AEEF;stroke-width:0.5;opacity:1.0;" x1="505.707" x2="505.707" y1="600.785" y2="720.121"/>
  <line id="right-margin-Ultralight-S" style="fill:none;stroke:#00AEEF;stroke-width:0.5;opacity:1.0;" x1="613.715" x2="613.715" y1="600.785" y2="720.121"/>
  <line id="left-margin-Regular-S" style="fill:none;stroke:#00AEEF;stroke-width:0.5;opacity:1.0;" x1="1394.79" x2="1394.79" y1="600.785" y2="720.121"/>
  <line id="right-margin-Regular-S" style="fill:none;stroke:#00AEEF;stroke-width:0.5;opacity:1.0;" x1="1504.9" x2="1504.9" y1="600.785" y2="720.121"/>
  <line id="left-margin-Black-S" style="fill:none;stroke:#00AEEF;stroke-width:0.5;opacity:1.0;" x1="2877.35" x2="2877.35" y1="600.785" y2="720.121"/>
  <line id="right-margin-Black-S" style="fill:none;stroke:#00AEEF;stroke-width:0.5;opacity:1.0;" x1="2989.45" x2="2989.45" y1="600.785" y2="720.121"/>
 </g>
 <g id="Symbols">
  <g id="Black-S" transform="matrix(1 0 0 1 2877.35 696)">
   <path class="hierarchical-0:secondary SFSymbolsPreview4D4D4D" d="M25 2.92969L87.1094 2.92969Q94.2871 2.92969 98.3154-1.09863Q102.344-5.12695 102.344-12.3047L102.344-58.1055Q102.344-65.2832 98.3154-69.3115Q94.2871-73.3398 87.1094-73.3398L25-73.3398Q17.8223-73.3398 13.7939-69.3115Q9.76562-65.2832 9.76562-58.1055L9.76562-12.3047Q9.76562-5.12695 13.7939-1.09863Q17.8223 2.92969 25 2.92969ZM27.2461-11.2305Q25.5859-11.2305 24.7559-11.9873Q23.9258-12.7441 23.9258-14.5508L23.9258-55.8594Q23.9258-57.7148 24.7559-58.4473Q25.5859-59.1797 27.2461-59.1797L84.8633-59.1797Q86.5723-59.1797 87.3779-58.4473Q88.1836-57.7148 88.1836-55.8594L88.1836-14.5508Q88.1836-12.7441 87.3779-11.9873Q86.5723-11.2305 84.8633-11.2305Z"/>
   <path class="hierarchical-1:primary SFSymbolsPreview212121" d="M42.2852-46.7773L78.5156-46.7773Q79.7852-46.7773 80.6396-47.6562Q81.4941-48.5352 81.4941-49.7559Q81.4941-50.9766 80.6152-51.8555Q79.7363-52.7344 78.5156-52.7344L42.2852-52.7344Q41.0645-52.7344 40.1855-51.8555Q39.3066-50.9766 39.3066-49.7559Q39.3066-48.5352 40.1855-47.6562Q41.0645-46.7773 42.2852-46.7773ZM42.2852-27.7832L78.5156-27.7832Q79.7852-27.7832 80.6396-28.6621Q81.4941-29.541 81.4941-30.7617Q81.4941-32.0312 80.6396-32.8613Q79.7852-33.6914 78.5156-33.6914L42.2852-33.6914Q41.0645-33.6914 40.1855-32.8613Q39.3066-32.0312 39.3066-30.7617Q39.3066-29.541 40.1855-28.6621Q41.0645-27.7832 42.2852-27.7832ZM42.2852-37.2559L63.8184-37.2559Q65.0391-37.2559 65.918-38.1348Q66.7969-39.0137 66.7969-40.2344Q66.7969-41.4551 65.9424-42.3584Q65.0879-43.2617 63.8184-43.2617L42.2852-43.2617Q41.0645-43.2617 40.1855-42.3584Q39.3066-41.4551 39.3066-40.2344Q39.3066-39.0137 40.1855-38.1348Q41.0645-37.2559 42.2852-37.2559ZM42.2852-17.7734L63.8184-17.7734Q65.0391-17.7734 65.918-18.6523Q66.7969-19.5312 66.7969-20.752Q66.7969-21.9727 65.9424-22.8516Q65.0879-23.7305 63.8184-23.7305L42.2852-23.7305Q41.0645-23.7305 40.1855-22.8516Q39.3066-21.9727 39.3066-20.752Q39.3066-19.5312 40.1855-18.6523Q41.0645-17.7734 42.2852-17.7734ZM34.1309-27.1973Q35.6445-27.1973 36.6943-28.2227Q37.7441-29.248 37.7441-30.7617Q37.7441-32.2266 36.7188-33.2764Q35.6934-34.3262 34.1309-34.3262Q32.6172-34.3262 31.5674-33.2764Q30.5176-32.2266 30.5176-30.7617Q30.5176-29.248 31.5674-28.2227Q32.6172-27.1973 34.1309-27.1973ZM34.1309-36.6211Q35.6445-36.6211 36.6943-37.6953Q37.7441-38.7695 37.7441-40.2344Q37.7441-41.748 36.6943-42.7979Q35.6445-43.8477 34.1309-43.8477Q32.666-43.8477 31.5918-42.7979Q30.5176-41.748 30.5176-40.2344Q30.5176-38.7695 31.5918-37.6953Q32.666-36.6211 34.1309-36.6211ZM34.1309-46.1914Q35.6445-46.1914 36.6943-47.2168Q37.7441-48.2422 37.7441-49.7559Q37.7441-51.2695 36.6943-52.3193Q35.6445-53.3691 34.1309-53.3691Q32.666-53.3691 31.5918-52.2949Q30.5176-51.2207 30.5176-49.7559Q30.5176-48.291 31.5918-47.2412Q32.666-46.1914 34.1309-46.1914ZM34.1309-17.1387Q35.6445-17.1387 36.6943-18.1885Q37.7441-19.2383 37.7441-20.752Q37.7441-22.2656 36.6943-23.291Q35.6445-24.3164 34.1309-24.3164Q32.666-24.3164 31.5918-23.2666Q30.5176-22.2168 30.5176-20.752Q30.5176-19.2871 31.5918-18.2129Q32.666-17.1387 34.1309-17.1387Z"/>
  </g>
  <g id="Regular-S" transform="matrix(1 0 0 1 1394.79 696)">
   <path class="hierarchical-0:secondary SFSymbolsPreview4D4D4D" d="M22.2168 0.390625L87.8906 0.390625Q94.1895 0.390625 97.2656-2.68555Q100.342-5.76172 100.342-11.9141L100.342-58.4961Q100.342-64.6484 97.2656-67.7246Q94.1895-70.8008 87.8906-70.8008L22.2168-70.8008Q16.0156-70.8008 12.8906-67.7246Q9.76562-64.6484 9.76562-58.4961L9.76562-11.9141Q9.76562-5.76172 12.8906-2.68555Q16.0156 0.390625 22.2168 0.390625ZM22.3145-6.68945Q19.6777-6.68945 18.2373-8.10547Q16.7969-9.52148 16.7969-12.2559L16.7969-58.1543Q16.7969-60.9375 18.2373-62.3291Q19.6777-63.7207 22.3145-63.7207L87.793-63.7207Q90.4297-63.7207 91.8701-62.3291Q93.3105-60.9375 93.3105-58.1543L93.3105-12.2559Q93.3105-9.52148 91.8701-8.10547Q90.4297-6.68945 87.793-6.68945Z"/>
   <path class="hierarchical-1:primary SFSymbolsPreview212121" d="M39.6484-50.1953L82.4707-50.1953Q83.5938-50.1953 84.375-50.9766Q85.1562-51.7578 85.1562-52.8809Q85.1562-53.9551 84.375-54.7607Q83.5938-55.5664 82.4707-55.5664L39.6484-55.5664Q38.5254-55.5664 37.7441-54.7607Q36.9629-53.9551 36.9629-52.8809Q36.9629-51.7578 37.7441-50.9766Q38.5254-50.1953 39.6484-50.1953ZM39.6484-27.1484L82.4707-27.1484Q83.5938-27.1484 84.375-27.9297Q85.1562-28.7109 85.1562-29.834Q85.1562-30.957 84.375-31.7139Q83.5938-32.4707 82.4707-32.4707L39.6484-32.4707Q38.5254-32.4707 37.7441-31.7139Q36.9629-30.957 36.9629-29.834Q36.9629-28.7109 37.7441-27.9297Q38.5254-27.1484 39.6484-27.1484ZM39.6484-38.623L62.9395-38.623Q64.0625-38.623 64.8438-39.4287Q65.625-40.2344 65.625-41.3086Q65.625-42.4316 64.8438-43.2129Q64.0625-43.9941 62.9395-43.9941L39.6484-43.9941Q38.5254-43.9941 37.7441-43.2129Q36.9629-42.4316 36.9629-41.3086Q36.9629-40.2344 37.7441-39.4287Q38.5254-38.623 39.6484-38.623ZM39.6484-14.9902L62.9395-14.9902Q64.0625-14.9902 64.8438-15.7715Q65.625-16.5527 65.625-17.6758Q65.625-18.75 64.8438-19.5312Q64.0625-20.3125 62.9395-20.3125L39.6484-20.3125Q38.5254-20.3125 37.7441-19.5312Q36.9629-18.75 36.9629-17.6758Q36.9629-16.5527 37.7441-15.7715Q38.5254-14.9902 39.6484-14.9902ZM28.6133-26.2207Q30.127-26.2207 31.1768-27.2705Q32.2266-28.3203 32.2266-29.834Q32.2266-31.3477 31.1768-32.373Q30.127-33.3984 28.6133-33.3984Q27.1484-33.3984 26.0986-32.3486Q25.0488-31.2988 25.0488-29.834Q25.0488-28.3203 26.0986-27.2705Q27.1484-26.2207 28.6133-26.2207ZM28.6133-37.7441Q30.127-37.7441 31.1768-38.7939Q32.2266-39.8438 32.2266-41.3086Q32.2266-42.8223 31.1768-43.8721Q30.127-44.9219 28.6133-44.9219Q27.1484-44.9219 26.0986-43.8477Q25.0488-42.7734 25.0488-41.3086Q25.0488-39.8438 26.0986-38.7939Q27.1484-37.7441 28.6133-37.7441ZM28.6133-49.2676Q30.127-49.2676 31.1768-50.3174Q32.2266-51.3672 32.2266-52.8809Q32.2266-54.3457 31.1768-55.3955Q30.127-56.4453 28.6133-56.4453Q27.1484-56.4453 26.0986-55.3711Q25.0488-54.2969 25.0488-52.8809Q25.0488-51.416 26.0986-50.3418Q27.1484-49.2676 28.6133-49.2676ZM28.6133-14.0625Q30.127-14.0625 31.1768-15.1123Q32.2266-16.1621 32.2266-17.6758Q32.2266-19.1406 31.1768-20.1904Q30.127-21.2402 28.6133-21.2402Q27.1484-21.2402 26.0986-20.166Q25.0488-19.0918 25.0488-17.6758Q25.0488-16.2109 26.0986-15.1367Q27.1484-14.0625 28.6133-14.0625Z"/>
  </g>
  <g id="Ultralight-S" transform="matrix(1 0 0 1 505.707 696)">
   <path class="hierarchical-0:secondary SFSymbolsPreview4D4D4D" d="M19.7754-1.66016L88.2324-1.66016Q93.2129-1.66016 95.7275-4.22363Q98.2422-6.78711 98.2422-11.6211L98.2422-58.8379Q98.2422-63.6719 95.7275-66.2598Q93.2129-68.8477 88.2324-68.8477L19.7754-68.8477Q14.8438-68.8477 12.3047-66.3086Q9.76562-63.7695 9.76562-58.8379L9.76562-11.6211Q9.76562-6.73828 12.3047-4.19922Q14.8438-1.66016 19.7754-1.66016ZM19.873-3.85742Q15.9668-3.85742 13.9648-5.85938Q11.9629-7.86133 11.9629-11.7676L11.9629-58.7402Q11.9629-62.6465 13.9648-64.6484Q15.9668-66.6504 19.873-66.6504L88.1348-66.6504Q91.9434-66.6504 93.9941-64.6484Q96.0449-62.6465 96.0449-58.7402L96.0449-11.7676Q96.0449-7.86133 93.9941-5.85938Q91.9434-3.85742 88.1348-3.85742Z"/>
   <path class="hierarchical-1:primary SFSymbolsPreview212121" d="M38.5742-53.0762L86.6699-53.0762Q87.1582-53.0762 87.4268-53.3691Q87.6953-53.6621 87.6953-54.1504Q87.6953-54.5898 87.4268-54.9072Q87.1582-55.2246 86.6699-55.2246L38.5742-55.2246Q38.1348-55.2246 37.8174-54.9072Q37.5-54.5898 37.5-54.1504Q37.5-53.6621 37.8174-53.3691Q38.1348-53.0762 38.5742-53.0762ZM38.5742-27.9785L86.6699-27.9785Q87.1582-27.9785 87.4268-28.2715Q87.6953-28.5645 87.6953-29.0527Q87.6953-29.4922 87.4268-29.8096Q87.1582-30.127 86.6699-30.127L38.5742-30.127Q38.1348-30.127 37.8174-29.8096Q37.5-29.4922 37.5-29.0527Q37.5-28.5645 37.8174-28.2715Q38.1348-27.9785 38.5742-27.9785ZM38.5742-40.5273L67.1387-40.5273Q67.627-40.5273 67.8955-40.8203Q68.1641-41.1133 68.1641-41.6016Q68.1641-42.0898 67.8955-42.3584Q67.627-42.627 67.1387-42.627L38.5742-42.627Q38.1348-42.627 37.8174-42.3584Q37.5-42.0898 37.5-41.6016Q37.5-41.1133 37.8174-40.8203Q38.1348-40.5273 38.5742-40.5273ZM38.5742-15.3809L67.1387-15.3809Q67.627-15.3809 67.8955-15.6982Q68.1641-16.0156 68.1641-16.4551Q68.1641-16.9434 67.8955-17.2363Q67.627-17.5293 67.1387-17.5293L38.5742-17.5293Q38.1348-17.5293 37.8174-17.2363Q37.5-16.9434 37.5-16.4551Q37.5-16.0156 37.8174-15.6982Q38.1348-15.3809 38.5742-15.3809ZM24.707-25.6836Q26.123-25.6836 27.0996-26.6602Q28.0762-27.6367 28.0762-29.0527Q28.0762-30.4199 27.0996-31.4209Q26.123-32.4219 24.707-32.4219Q23.3398-32.4219 22.3389-31.4209Q21.3379-30.4199 21.3379-29.0527Q21.3379-27.6367 22.3389-26.6602Q23.3398-25.6836 24.707-25.6836ZM24.707-38.1836Q26.123-38.1836 27.0996-39.1846Q28.0762-40.1855 28.0762-41.6016Q28.0762-43.0176 27.0996-43.9941Q26.123-44.9707 24.707-44.9707Q23.3398-44.9707 22.3389-43.9941Q21.3379-43.0176 21.3379-41.6016Q21.3379-40.1855 22.3389-39.1846Q23.3398-38.1836 24.707-38.1836ZM24.707-50.7812Q26.123-50.7812 27.0996-51.7578Q28.0762-52.7344 28.0762-54.1504Q28.0762-55.5176 27.0996-56.5186Q26.123-57.5195 24.707-57.5195Q23.3398-57.5195 22.3389-56.5186Q21.3379-55.5176 21.3379-54.1504Q21.3379-52.7344 22.3389-51.7578Q23.3398-50.7812 24.707-50.7812ZM24.707-13.0859Q26.123-13.0859 27.0996-14.0869Q28.0762-15.0879 28.0762-16.4551Q28.0762-17.8711 27.0996-18.8477Q26.123-19.8242 24.707-19.8242Q23.3398-19.8242 22.3389-18.8477Q21.3379-17.8711 21.3379-16.4551Q21.3379-15.0879 22.3389-14.0869Q23.3398-13.0859 24.707-13.0859Z"/>
  </g>
 </g>
</svg>
